<mxfile host="Electron" modified="2023-09-18T05:17:37.594Z" agent="Mozilla/5.0 (Windows NT 10.0; Win64; x64) AppleWebKit/537.36 (KHTML, like Gecko) draw.io/21.7.5 Chrome/114.0.5735.289 Electron/25.8.1 Safari/537.36" etag="6LaErUP73wOfhYderMnc" version="21.7.5" type="device">
  <diagram id="C5RBs43oDa-KdzZeNtuy" name="Page-1">
    <mxGraphModel dx="1035" dy="626" grid="1" gridSize="10" guides="1" tooltips="1" connect="1" arrows="1" fold="1" page="1" pageScale="1" pageWidth="827" pageHeight="1169" math="0" shadow="0">
      <root>
        <mxCell id="WIyWlLk6GJQsqaUBKTNV-0" />
        <mxCell id="WIyWlLk6GJQsqaUBKTNV-1" parent="WIyWlLk6GJQsqaUBKTNV-0" />
        <mxCell id="NZ973pGu295jEvNDFxFm-0" value="Start" style="strokeWidth=2;html=1;shape=mxgraph.flowchart.start_2;whiteSpace=wrap;" vertex="1" parent="WIyWlLk6GJQsqaUBKTNV-1">
          <mxGeometry x="364" y="60" width="136" height="60" as="geometry" />
        </mxCell>
        <mxCell id="NZ973pGu295jEvNDFxFm-1" value="" style="endArrow=classic;html=1;rounded=0;" edge="1" parent="WIyWlLk6GJQsqaUBKTNV-1">
          <mxGeometry width="50" height="50" relative="1" as="geometry">
            <mxPoint x="430" y="120" as="sourcePoint" />
            <mxPoint x="430" y="170" as="targetPoint" />
          </mxGeometry>
        </mxCell>
        <mxCell id="NZ973pGu295jEvNDFxFm-4" value="" style="verticalLabelPosition=bottom;verticalAlign=top;html=1;shape=hexagon;perimeter=hexagonPerimeter2;arcSize=6;size=0.27;" vertex="1" parent="WIyWlLk6GJQsqaUBKTNV-1">
          <mxGeometry x="346" y="170" width="172" height="70" as="geometry" />
        </mxCell>
        <mxCell id="NZ973pGu295jEvNDFxFm-5" value="int r&lt;br&gt;double keliling, luas, phi = 3.14" style="text;html=1;strokeColor=none;fillColor=none;align=center;verticalAlign=middle;whiteSpace=wrap;rounded=0;" vertex="1" parent="WIyWlLk6GJQsqaUBKTNV-1">
          <mxGeometry x="383" y="190" width="98" height="30" as="geometry" />
        </mxCell>
        <mxCell id="NZ973pGu295jEvNDFxFm-6" value="" style="endArrow=classic;html=1;rounded=0;" edge="1" parent="WIyWlLk6GJQsqaUBKTNV-1">
          <mxGeometry width="50" height="50" relative="1" as="geometry">
            <mxPoint x="431.5" y="240" as="sourcePoint" />
            <mxPoint x="431.5" y="290" as="targetPoint" />
            <Array as="points">
              <mxPoint x="431.5" y="280" />
              <mxPoint x="431.5" y="290" />
            </Array>
          </mxGeometry>
        </mxCell>
        <mxCell id="NZ973pGu295jEvNDFxFm-7" value="r" style="shape=parallelogram;perimeter=parallelogramPerimeter;whiteSpace=wrap;html=1;fixedSize=1;" vertex="1" parent="WIyWlLk6GJQsqaUBKTNV-1">
          <mxGeometry x="361" y="290" width="142" height="60" as="geometry" />
        </mxCell>
        <mxCell id="NZ973pGu295jEvNDFxFm-9" value="" style="endArrow=classic;html=1;rounded=0;" edge="1" parent="WIyWlLk6GJQsqaUBKTNV-1">
          <mxGeometry width="50" height="50" relative="1" as="geometry">
            <mxPoint x="431.5" y="350" as="sourcePoint" />
            <mxPoint x="431.5" y="400" as="targetPoint" />
          </mxGeometry>
        </mxCell>
        <mxCell id="NZ973pGu295jEvNDFxFm-10" value="keliling = 2*phi*r&lt;br&gt;luas = phi*r*r" style="rounded=0;whiteSpace=wrap;html=1;" vertex="1" parent="WIyWlLk6GJQsqaUBKTNV-1">
          <mxGeometry x="361" y="400" width="142" height="70" as="geometry" />
        </mxCell>
        <mxCell id="NZ973pGu295jEvNDFxFm-11" value="" style="endArrow=classic;html=1;rounded=0;" edge="1" parent="WIyWlLk6GJQsqaUBKTNV-1">
          <mxGeometry width="50" height="50" relative="1" as="geometry">
            <mxPoint x="431.5" y="470" as="sourcePoint" />
            <mxPoint x="431.5" y="520" as="targetPoint" />
          </mxGeometry>
        </mxCell>
        <mxCell id="NZ973pGu295jEvNDFxFm-13" value="keliling, luas" style="shape=parallelogram;perimeter=parallelogramPerimeter;whiteSpace=wrap;html=1;fixedSize=1;" vertex="1" parent="WIyWlLk6GJQsqaUBKTNV-1">
          <mxGeometry x="356" y="520" width="152" height="65" as="geometry" />
        </mxCell>
        <mxCell id="NZ973pGu295jEvNDFxFm-14" value="" style="endArrow=classic;html=1;rounded=0;" edge="1" parent="WIyWlLk6GJQsqaUBKTNV-1">
          <mxGeometry width="50" height="50" relative="1" as="geometry">
            <mxPoint x="431.5" y="585" as="sourcePoint" />
            <mxPoint x="431.5" y="635" as="targetPoint" />
          </mxGeometry>
        </mxCell>
        <mxCell id="NZ973pGu295jEvNDFxFm-15" value="End" style="strokeWidth=2;html=1;shape=mxgraph.flowchart.start_2;whiteSpace=wrap;" vertex="1" parent="WIyWlLk6GJQsqaUBKTNV-1">
          <mxGeometry x="364" y="630" width="136" height="60" as="geometry" />
        </mxCell>
      </root>
    </mxGraphModel>
  </diagram>
</mxfile>
